# 
# Wavefront OBJ file
# Converted by the DEEP Exploration 4.1.0.0
# Right Hemisphere, LTD
# http://www.righthemisphere.com/
# 
mtllib forma.mtl
# object object
g object
v 32.0543 3 -0.0085907
v 32.0543 -3 -0.0085907
v 47 0 0
v 46 -3 0
v 46 0 3
v 46 0 -3
v 46 3 0
v 3.00002 0 -10
v 16 2.12132 -2.12991
v 16 -2.12132 -2.12991
v 37 5 0
v 37 0 -5
v 37 -5 0
v 37 0 5
v 45 -4 0
v 45 0 4
v 45 0 -4
v 45 4 0
v 16 2.12132 2.11273
v 16 -2.12132 2.11273
v -2.99998 -2.82843 2.82843
v -2.99998 2.82843 2.82843
v -2.99998 -2.82843 -2.82843
v -2.99998 2.82843 -2.82843
v 10 -3.97853 -0.0214729
v 10 3.97853 -0.0214729
v 46 -2.12132 2.12132
v 46 2.12132 2.12132
v 46 -2.12132 -2.12132
v 46 2.12132 -2.12132
v -1.99998 -3.97853 -0.0214729
v -1.99998 3.97853 -0.0214729
v 16 3 -0.0085907
v 16 -3 -0.0085907
v -1.99998 0 9.95705
v 11 4 0
v 11 0 -4
v 11 -4 0
v 11 0 4
v 37 3.53553 -3.53553
v 37 3.53553 3.53553
v 37 -3.53553 -3.53553
v 37 -3.53553 3.53553
v 32.0543 0 -3.00859
v 10 0 -4
v 32.0543 0 2.99141
v 43 0 -5
v 43 -5 0
v 43 0 5
v 43 5 0
v -1.99998 0 -4
v 3.00002 0 9.95705
v 0 0 -0.00429535
v 45 -2.82843 2.82843
v 45 2.82843 2.82843
v 45 -2.82843 -2.82843
v 45 2.82843 -2.82843
v -1.99998 -9.97853 -0.0214729
v -1.99998 9.97853 -0.0214729
v 16 0 -3.00859
v 16 0 2.99141
v -2.99998 -4 0
v -2.99998 0 4
v -2.99998 0 -4
v -2.99998 4 0
v 10 0 3.95705
v 43 3.53553 -3.53553
v 43 -3.53553 -3.53553
v 43 -3.53553 3.53553
v 43 3.53553 3.53553
v 11 2.82843 -2.82843
v 11 2.82843 2.82843
v 11 -2.82843 -2.82843
v 11 -2.82843 2.82843
v 3.00002 -9.97853 -0.0214729
v 3.00002 9.97853 -0.0214729
v 32.0543 2.12132 -2.12991
v 32.0543 -2.12132 -2.12991
v 32.0543 2.12132 2.11273
v 32.0543 -2.12132 2.11273
v -1.99998 0 -10
v -1.99998 0 3.95705
# 82 verticies
vt 0.663305 0.016169
vt 0.98724 0.016169
vt 0.98724 0.201757
vt 0.663306 0.440369
vt 0.571017 0.398617
vt 0.491325 0.398617
vt 0.491325 0.721031
vt 0.571017 0.721031
vt 0.411888 0.398617
vt 0.411888 0.721031
vt 0.650891 0.398617
vt 0.650891 0.721031
vt 0.094243 0.398617
vt 0.0143692 0.398617
vt 0.0143692 0.721031
vt 0.094243 0.721031
vt 0.173935 0.398617
vt 0.173935 0.721031
vt 0.33263 0.398617
vt 0.253371 0.398617
vt 0.253371 0.721031
vt 0.33263 0.721031
vt 0.491325 0.820354
vt 0.571017 0.820354
vt 0.411888 0.820354
vt 0.650891 0.820354
vt 0.0143692 0.820354
vt 0.094243 0.820354
vt 0.173935 0.820354
vt 0.253371 0.820354
vt 0.33263 0.820354
vt 0.571017 0.940851
vt 0.650891 0.940851
vt 0.0143692 0.940851
vt 0.094243 0.940851
vt 0.173935 0.940851
vt 0.253371 0.940851
vt 0.33263 0.940851
vt 0.411888 0.940851
vt 0.174043 0.981016
vt 0.253448 0.981016
vt 0.944762 0.937346
vt 0.830333 0.982396
vt 0.830333 0.943943
vt 0.916155 0.910155
vt 0.830333 0.828583
vt 0.33263 0.981016
vt 0.411812 0.981016
vt 0.944762 0.719821
vt 0.99216 0.828583
vt 0.951703 0.828583
vt 0.916155 0.747012
vt 0.0943204 0.981016
vt 0.715904 0.937346
vt 0.744511 0.910155
vt 0.0143692 0.981016
vt 0.668506 0.828583
vt 0.708962 0.828583
vt 0.570939 0.981016
vt 0.650891 0.981016
vt 0.715904 0.719821
vt 0.744511 0.747012
vt 0.491325 0.940851
vt 0.491216 0.981016
vt 0.830333 0.67477
vt 0.830333 0.713224
vt 0.570939 0.298203
vt 0.491216 0.298203
vt 0.411812 0.298203
vt 0.650891 0.298203
vt 0.0943204 0.298203
vt 0.0143692 0.298203
vt 0.174043 0.298203
vt 0.33263 0.298203
vt 0.253448 0.298203
vt 0.253448 0.0170457
vt 0.174043 0.0170457
vt 0.411812 0.0170457
vt 0.33263 0.0170457
vt 0.0943204 0.0170457
vt 0.0143692 0.0170457
vt 0.650891 0.0170457
vt 0.570939 0.0170457
vt 0.491216 0.0170457
vt 0.830861 0.518066
vt 0.728526 0.622659
vt 0.831016 0.665983
vt 0.686073 0.518066
vt 0.728526 0.413474
vt 0.831016 0.37015
vt 0.933506 0.413474
vt 0.975959 0.518066
vt 0.933506 0.622659
# 93 texture verticies
vn 0 -1 0
vn 0 1 0
vn 0 0 1
vn 0 0 -1
vn 0 0.707107 -0.707107
vn 0 1 -1.61289e-007
vn 0 0.707107 0.707107
vn 0 -0.707107 -0.707107
vn 0 -1 -1.61289e-007
vn 0 -0.707107 0.707107
vn -0.373914 0.655774 -0.655857
vn -0.374893 0.927068 -8.37369e-005
vn -0.375871 0.655298 0.655214
vn -0.373508 0 -0.927627
vn -0.373914 -0.655774 -0.655857
vn -0.374893 -0.927068 -8.37369e-005
vn -0.376276 0 0.926508
vn -0.375871 -0.655298 0.655214
vn 0.231459 0.687905 -0.687905
vn 0.231459 0 -0.972845
vn 0.231459 -0.687905 -0.687905
vn 0.231459 -0.972845 1.6449e-008
vn 0.231459 -0.687905 0.687905
vn 0.231459 0 0.972845
vn 0.231459 0.687905 0.687905
vn 0.586233 -0.810143 6.36496e-008
vn 0.586233 -0.572857 0.572857
vn 0.85267 -0.52245 8.63139e-008
vn 0.85267 -0.369428 0.369428
vn 1 0 3.36629e-008
vn 0.586233 0 0.810143
vn 0.586233 0.572857 0.572857
vn 0.85267 -7.84672e-009 0.52245
vn 0.85267 0.369428 0.369428
vn 0.586233 -0.572857 -0.572857
vn 0.85267 -0.369428 -0.369428
vn 0.586233 -7.9562e-009 -0.810143
vn 0.85267 0 -0.52245
vn 0.586233 0.572857 -0.572857
vn 0.85267 0.369428 -0.369428
vn 0.231459 0.972845 1.6449e-008
vn 0.586233 0.810143 6.36496e-008
vn 0.85267 0.52245 8.63139e-008
vn 0.19497 0.693513 -0.69356
vn 0.196116 0.980581 -4.78482e-005
vn 0.197261 0.693237 0.693189
vn 0.194495 0 -0.980904
vn 0.19497 -0.693513 -0.69356
vn 0.196116 -0.980581 -4.78482e-005
vn 0.197735 0 0.980256
vn 0.197261 -0.693237 0.693189
vn 0 -1 -1.12902e-007
vn 0 1 -1.12902e-007
vn -1 0 0.000284359
vn -0.799783 0.424435 0.424502
vn -0.800002 0.599997 6.67151e-005
vn -0.799693 0 0.60041
vn -0.799783 -0.424435 0.424502
vn -0.800002 -0.599997 6.67151e-005
vn -0.800221 -0.424089 -0.424023
vn -0.800311 0 -0.599585
vn -0.800221 0.424089 -0.424023
# 62 normals
usemtl material
f  51/1/1 81/2/1 8/3/1 45/4/1
f  51/1/2 45/4/2 8/3/2 81/2/2
f  31/1/3 58/2/3 75/3/3 25/4/3
f  31/1/4 25/4/4 75/3/4 58/2/4
f  82/1/2 35/2/2 52/3/2 66/4/2
f  82/1/1 66/4/1 52/3/1 35/2/1
f  32/1/4 59/2/4 76/3/4 26/4/4
f  32/1/3 26/4/3 76/3/3 59/2/3
f  9/5/5 33/6/6 1/7/6 77/8/5
f  33/6/6 19/9/7 79/10/7 1/7/6
f  60/11/4 9/5/5 77/8/5 44/12/4
f  10/13/8 60/14/4 44/15/4 78/16/8
f  34/17/9 10/13/8 78/16/8 2/18/9
f  61/19/3 20/20/10 80/21/10 46/22/3
f  19/9/7 61/19/3 46/22/3 79/10/7
f  20/20/10 34/17/9 2/18/9 80/21/10
f  77/8/11 1/7/12 11/23/12 40/24/11
f  1/7/12 79/10/13 41/25/13 11/23/12
f  44/12/14 77/8/11 40/24/11 12/26/14
f  78/16/15 44/15/14 12/27/14 42/28/15
f  2/18/16 78/16/15 42/28/15 13/29/16
f  46/22/17 80/21/18 43/30/18 14/31/17
f  79/10/13 46/22/17 14/31/17 41/25/13
f  80/21/18 2/18/16 13/29/16 43/30/18
f  12/26/4 40/24/5 67/32/19 47/33/20
f  42/28/8 12/27/4 47/34/20 68/35/21
f  13/29/1 42/28/8 68/35/21 48/36/22
f  14/31/3 43/30/10 69/37/23 49/38/24
f  41/25/7 14/31/3 49/38/24 70/39/25
f  69/37/23 48/36/22 15/40/26 54/41/27
f  54/42/27 15/43/26 4/44/28 27/45/29
f  27/45/29 4/44/28 3/46/30
f  70/39/25 49/38/24 16/47/31 55/48/32
f  55/49/32 16/50/31 5/51/33 28/52/34
f  28/52/34 5/51/33 3/46/30
f  49/38/24 69/37/23 54/41/27 16/47/31
f  16/50/31 54/42/27 27/45/29 5/51/33
f  5/51/33 27/45/29 3/46/30
f  48/36/22 68/35/21 56/53/35 15/40/26
f  15/43/26 56/54/35 29/55/36 4/44/28
f  4/44/28 29/55/36 3/46/30
f  68/35/21 47/34/20 17/56/37 56/53/35
f  56/54/35 17/57/37 6/58/38 29/55/36
f  29/55/36 6/58/38 3/46/30
f  47/33/20 67/32/19 57/59/39 17/60/37
f  17/57/37 57/61/39 30/62/40 6/58/38
f  6/58/38 30/62/40 3/46/30
f  11/23/2 41/25/7 70/39/25 50/63/41
f  50/63/41 70/39/25 55/48/32 18/64/42
f  18/65/42 55/49/32 28/52/34 7/66/43
f  7/66/43 28/52/34 3/46/30
f  40/24/5 11/23/2 50/63/41 67/32/19
f  67/32/19 50/63/41 18/64/42 57/59/39
f  57/61/39 18/65/42 7/66/43 30/62/40
f  30/62/40 7/66/43 3/46/30
f  43/30/10 13/29/1 48/36/22 69/37/23
f  71/67/44 36/68/45 33/6/45 9/5/44
f  36/68/45 72/69/46 19/9/46 33/6/45
f  37/70/47 71/67/44 9/5/44 60/11/47
f  73/71/48 37/72/47 60/14/47 10/13/48
f  38/73/49 73/71/48 10/13/48 34/17/49
f  39/74/50 74/75/51 20/20/51 61/19/50
f  72/69/46 39/74/50 61/19/50 19/9/46
f  74/75/51 38/73/49 34/17/49 20/20/51
f  21/76/10 62/77/52 38/73/52 74/75/10
f  22/78/7 63/79/3 39/74/3 72/69/7
f  63/79/3 21/76/10 74/75/10 39/74/3
f  62/77/52 23/80/8 73/71/8 38/73/52
f  23/80/8 64/81/4 37/72/4 73/71/8
f  64/82/4 24/83/5 71/67/5 37/70/4
f  65/84/53 22/78/7 72/69/7 36/68/53
f  24/83/5 65/84/53 36/68/53 71/67/5
f  53/85/54 23/86/55 62/87/56
f  53/85/54 64/88/57 23/86/55
f  53/85/54 24/89/58 64/88/57
f  53/85/54 65/90/59 24/89/58
f  53/85/54 22/91/60 65/90/59
f  53/85/54 63/92/61 22/91/60
f  53/85/54 21/93/62 63/92/61
f  53/85/54 62/87/56 21/93/62
