# model:
g object_1

# summary for object:
#     vertices   (v)  = 4
#     UV coords  (vt) = 4
#     normals    (vn) = 1
#     faces      (f)  = 1

# vertices

v         -7.5          -10          -10
v         -7.5           10          -10
v         -7.5           10           10
v         -7.5          -10           10

# normals

vn            1 -1.8369095e-016 1.8369095e-016

# texture vertices

vt            1            0
vt            0            1
vt            0            0
vt            1            1


f 1/3/1 2/1/1 3/4/1 4/2/1 
# model:
g object_2

# summary for object:
#     vertices   (v)  = 4
#     UV coords  (vt) = 4
#     normals    (vn) = 1
#     faces      (f)  = 1

# vertices

v          7.5          -10          -10
v          7.5           10          -10
v          7.5           10           10
v          7.5          -10           10

# normals

vn            1 -1.8369095e-016 1.8369095e-016

# texture vertices

vt            0            1
vt            1            0
vt            0            0
vt            1            1


f 5/5/2 6/7/2 7/6/2 8/8/2 
# model:
g object_3

# summary for object:
#     vertices   (v)  = 4
#     UV coords  (vt) = 4
#     normals    (vn) = 1
#     faces      (f)  = 1

# vertices

v          2.5          -10          -10
v          2.5           10          -10
v          2.5           10           10
v          2.5          -10           10

# normals

vn            1 -1.8369095e-016 1.8369095e-016

# texture vertices

vt            0            1
vt            1            0
vt            1            1
vt            0            0


f 9/11/3 10/9/3 11/12/3 12/10/3 
# model:
g object_4

# summary for object:
#     vertices   (v)  = 4
#     UV coords  (vt) = 4
#     normals    (vn) = 1
#     faces      (f)  = 1

# vertices

v         -2.5          -10          -10
v         -2.5           10          -10
v         -2.5           10           10
v         -2.5          -10           10

# normals

vn            1 -1.8369095e-016 1.8369095e-016

# texture vertices

vt            1            0
vt            0            1
vt            1            1
vt            0            0


f 13/13/4 14/15/4 15/14/4 16/16/4 
# model:
g object_5

# summary for object:
#     vertices   (v)  = 4
#     UV coords  (vt) = 4
#     normals    (vn) = 1
#     faces      (f)  = 1

# vertices

v          -10         -2.5          -10
v          -10         -2.5           10
v           10         -2.5           10
v           10         -2.5          -10

# normals

vn            0            1            0

# texture vertices

vt            0            1
vt            1            0
vt            1            1
vt            0            0


f 17/19/5 18/17/5 19/20/5 20/18/5 
# model:
g object_6

# summary for object:
#     vertices   (v)  = 4
#     UV coords  (vt) = 4
#     normals    (vn) = 1
#     faces      (f)  = 1

# vertices

v          -10          2.5          -10
v          -10          2.5           10
v           10          2.5           10
v           10          2.5          -10

# normals

vn            0            1            0

# texture vertices

vt            0            1
vt            1            0
vt            0            0
vt            1            1


f 21/21/6 22/23/6 23/22/6 24/24/6 
# model:
g object_7

# summary for object:
#     vertices   (v)  = 4
#     UV coords  (vt) = 4
#     normals    (vn) = 1
#     faces      (f)  = 1

# vertices

v          -10          7.5          -10
v          -10          7.5           10
v           10          7.5           10
v           10          7.5          -10

# normals

vn            0            1            0

# texture vertices

vt            1            0
vt            0            1
vt            0            0
vt            1            1

f 25/27/7 26/25/7 27/28/7 28/26/7 
# model:
g object_8

# summary for object:
#     vertices   (v)  = 4
#     UV coords  (vt) = 4
#     normals    (vn) = 1
#     faces      (f)  = 1

# vertices

v          -10         -7.5          -10
v          -10         -7.5           10
v           10         -7.5           10
v           10         -7.5          -10

# normals

vn            0            1            0

# texture vertices

vt            1            0
vt            0            1
vt            1            1
vt            0            0

f 29/29/8 30/31/8 31/30/8 32/32/8 
# model:
g object_9

# summary for object:
#     vertices   (v)  = 4
#     UV coords  (vt) = 4
#     normals    (vn) = 1
#     faces      (f)  = 1

# vertices

v          -10          -10          2.5
v          -10           10          2.5
v           10           10          2.5
v           10          -10          2.5

# normals

vn            0 -1.8369095e-016           -1

# texture vertices

vt            0            1
vt            1            0
vt            0            0
vt            1            1

f 33/33/9 34/35/9 35/34/9 36/36/9 
# model:
g object_10

# summary for object:
#     vertices   (v)  = 4
#     UV coords  (vt) = 4
#     normals    (vn) = 1
#     faces      (f)  = 1

# vertices

v          -10          -10         -2.5
v          -10           10         -2.5
v           10           10         -2.5
v           10          -10         -2.5

# normals

vn            0 -1.8369095e-016           -1

# texture vertices

vt            0            1
vt            1            0
vt            1            1
vt            0            0

f 37/39/10 38/37/10 39/40/10 40/38/10 
# model:
g object_11

# summary for object:
#     vertices   (v)  = 4
#     UV coords  (vt) = 4
#     normals    (vn) = 1
#     faces      (f)  = 1

# vertices

v          -10          -10         -7.5
v          -10           10         -7.5
v           10           10         -7.5
v           10          -10         -7.5

# normals

vn            0 -1.8369095e-016           -1

# texture vertices

vt            1            0
vt            0            1
vt            1            1
vt            0            0

f 41/41/11 42/43/11 43/42/11 44/44/11 
# model:
g object_12

# summary for object:
#     vertices   (v)  = 4
#     UV coords  (vt) = 4
#     normals    (vn) = 1
#     faces      (f)  = 1

# vertices

v          -10          -10          7.5
v          -10           10          7.5
v           10           10          7.5
v           10          -10          7.5

# normals

vn            0 -1.8369095e-016           -1

# texture vertices

vt            1            0
vt            0            1
vt            0            0
vt            1            1

f 45/47/12 46/45/12 47/48/12 48/46/12 

# end of file

