# 
# Wavefront OBJ file
# Converted by the DEEP Exploration Deep Exploration 4.0.10.871 Release
# Right Hemisphere, LTD
# http://www.righthemisphere.com/
# 
mtllib forma.mtl
# object object_1
g object_1
v 0 -0.0326793 0.490826
v 0 -0.0701743 0.490826
v 0 -0.0976973 0.151376
v -6.99944e-007 0.0147319 0.262111
v 0.0249185 -0.0518257 0.490826
v -0.0249185 -0.0518257 0.490826
v 0.0536377 0.00128936 0.262192
v -0.0536377 0.00128936 0.262192
v 0.0366972 -0.0143513 -0.142202
v -0.0366972 -0.0143513 -0.142202
v 0.0206191 -0.0380535 0.490826
v -0.0206191 -0.0380535 0.490826
v 0.066055 -0.0518257 0.151376
v -0.066055 -0.0518257 0.151376
v -6.99944e-007 -0.0976973 0.262111
v 0 -0.0804954 -0.142202
v 0 0.024361 0.151376
v 0.0536376 0.0109255 0.151376
v -0.0536376 0.0109255 0.151376
v 0.0206191 -0.0648001 0.490826
v -0.0206191 -0.0648001 0.490826
v 0.0366972 -0.0720983 -0.142202
v -0.0366972 -0.0720983 -0.142202
v 0.0536377 -0.0842618 0.262192
v -0.0536377 -0.0842618 0.262192
v 0.043415 -0.0518257 -0.142202
v -0.043415 -0.0518257 -0.142202
v 0 -0.00595413 -0.142202
v 0 -0.0518257 0.5
v 0.0536376 -0.0842618 0.151376
v -0.0536376 -0.0842618 0.151376
v 0.066055 -0.0518257 0.262211
v -0.066055 -0.0518257 0.262211
# 33 verticies
vt 0.1875 0.554688
vt 0.207031 0.554688
vt 0.144531 0.589844
vt 0.0703125 0.554688
vt 0.109375 0.554688
vt 0.144531 0.554688
vt 0.0117188 0.355469
vt 0.0898438 0.355469
vt 0.0117188 0.257813
vt 0.0898438 0.257813
vt 0.0117188 0.0078125
vt 0.0898438 0.0078125
vt 0.144531 0.355469
vt 0.144531 0.257813
vt 0.144531 0.0078125
vt 0.21875 0.355469
vt 0.21875 0.257813
vt 0.21875 0.0078125
vt 0.289063 0.355469
vt 0.289063 0.257813
vt 0.289063 0.0078125
# 21 texture verticies
vn 0.508241 0.531195 0.677881
vn -1.2018e-006 0.783626 0.621233
vn -6.12383e-009 -0.00583886 0.999983
vn -1.24533e-006 -0.813758 0.581204
vn 0.501701 -0.573538 0.647573
vn 0.758181 -0.0320596 0.651256
vn -1.88155e-006 -0.998188 0.06017
vn 0.663434 -0.744 0.0794928
vn -7.71406e-007 -0.999594 -0.0284887
vn 0.664541 -0.746407 -0.0355215
vn 0 -0.99838 -0.0568936
vn 0.664874 -0.743552 -0.0712202
vn 0.99365 -0.0655046 0.091486
vn 0.9963 -0.0784093 -0.0351886
vn 0.99402 -0.0795249 -0.0748376
vn 0.707814 0.693063 0.136616
vn 0.721986 0.691508 -0.0235151
vn 0.720699 0.685642 -0.102409
vn -1.86507e-006 0.989375 0.145386
vn -7.82059e-007 0.999973 -0.00738249
vn 0 0.994873 -0.101132
vn -0.508242 0.531194 0.677881
vn -0.501702 -0.573538 0.647573
vn -0.758181 -0.0320596 0.651256
vn -0.663435 -0.743999 0.0794925
vn -0.664542 -0.746406 -0.0355219
vn -0.664874 -0.743552 -0.0712202
vn -0.99365 -0.0655046 0.091486
vn -0.9963 -0.0784093 -0.0351886
vn -0.99402 -0.0795249 -0.0748376
vn -0.707815 0.693061 0.136616
vn -0.721987 0.691507 -0.0235155
vn -0.720699 0.685642 -0.102409
# 33 normals
usemtl material
f  11/1/1 1/2/2 29/3/3
f  2/4/4 20/5/5 29/3/3
f  20/5/5 5/6/6 29/3/3
f  5/6/6 11/1/1 29/3/3
f  2/4/4 15/7/7 24/8/8 20/5/5
f  15/7/7 3/9/9 30/10/10 24/8/8
f  3/9/9 16/11/11 22/12/12 30/10/10
f  20/5/5 24/8/8 32/13/13 5/6/6
f  24/8/8 30/10/10 13/14/14 32/13/13
f  30/10/10 22/12/12 26/15/15 13/14/14
f  5/6/6 32/13/13 7/16/16 11/1/1
f  32/13/13 13/14/14 18/17/17 7/16/16
f  13/14/14 26/15/15 9/18/18 18/17/17
f  11/1/1 7/16/16 4/19/19 1/2/2
f  7/16/16 18/17/17 17/20/20 4/19/19
f  18/17/17 9/18/18 28/21/21 17/20/20
f  12/1/22 29/3/3 1/2/2
f  2/4/4 29/3/3 21/5/23
f  21/5/23 29/3/3 6/6/24
f  6/6/24 29/3/3 12/1/22
f  2/4/4 21/5/23 25/8/25 15/7/7
f  15/7/7 25/8/25 31/10/26 3/9/9
f  3/9/9 31/10/26 23/12/27 16/11/11
f  21/5/23 6/6/24 33/13/28 25/8/25
f  25/8/25 33/13/28 14/14/29 31/10/26
f  31/10/26 14/14/29 27/15/30 23/12/27
f  6/6/24 12/1/22 8/16/31 33/13/28
f  33/13/28 8/16/31 19/17/32 14/14/29
f  14/14/29 19/17/32 10/18/33 27/15/30
f  12/1/22 1/2/2 4/19/19 8/16/31
f  8/16/31 4/19/19 17/20/20 19/17/32
f  19/17/32 17/20/20 28/21/21 10/18/33
# object object_2
g object_2
v -0.426695 -0.0965957 -0.357729
v -0.0603643 -0.0427881 0.159114
v -0.430955 -0.0870725 -0.165133
v -0.42744 -0.105081 -0.165039
v -0.0644597 -0.0230843 0.17903
v -0.429317 -0.096052 -0.155912
v -0.0680352 -0.00348825 0.158908
v -0.0587391 -0.0242707 -0.261393
# 8 verticies
vt 0.0192156 0.988597
vt 0.015625 0.597223
vt 0.737332 0.597223
vt 0.35314 0.988597
vt 0.769647 0.604405
vt 0.363912 0.992188
# 6 texture verticies
vn 0.26016 -0.959926 -0.104204
vn 0.223322 -0.969087 -0.104873
vn 0.0888122 -0.945571 0.313063
vn -0.0156125 -0.951551 0.307093
vn -0.287204 -0.0510574 0.956508
vn -0.537843 -0.100604 0.837021
vn -0.273897 0.912667 0.303346
vn -0.372894 0.878881 0.297522
vn -0.157281 0.980827 -0.115069
vn -0.119704 0.986199 -0.114381
# 10 normals
f  34/22/34 41/23/35 35/24/36 37/25/37
f  37/25/37 35/24/36 38/26/38 39/27/39
f  39/27/39 38/26/38 40/24/40 36/25/41
f  36/25/41 40/24/40 41/23/42 34/22/43
# object object_3
g object_3
v 0.426695 -0.0965957 -0.357729
v 0.0603643 -0.0427881 0.159114
v 0.430955 -0.0870725 -0.165133
v 0.42744 -0.105081 -0.165039
v 0.0644597 -0.0230843 0.17903
v 0.429317 -0.096052 -0.155912
v 0.0680352 -0.00348825 0.158908
v 0.0587391 -0.0242707 -0.261393
# 8 verticies
vt 0.0192156 0.988597
vt 0.35314 0.988597
vt 0.737332 0.597223
vt 0.015625 0.597223
vt 0.363912 0.992188
vt 0.769647 0.604405
# 6 texture verticies
vn -0.26016 -0.959926 -0.104204
vn 0.0156125 -0.951551 0.307093
vn -0.0888122 -0.945571 0.313063
vn -0.223322 -0.969087 -0.104873
vn 0.537843 -0.100604 0.837021
vn 0.287204 -0.0510574 0.956508
vn 0.372894 0.878881 0.297522
vn 0.273897 0.912667 0.303346
vn 0.119704 0.986199 -0.114381
vn 0.157281 0.980827 -0.115069
# 10 normals
f  42/28/44 45/29/45 43/30/46 49/31/47
f  45/29/45 47/32/48 46/33/49 43/30/46
f  47/32/48 44/29/50 48/30/51 46/33/49
f  44/29/50 42/28/52 49/31/53 48/30/51
# object object_4
g object_4
v -0.230925 -0.11829 -0.40367
v -0.0769081 -0.0876279 -0.279817
v -0.219367 -0.124186 -0.408257
v -0.0825688 -0.0701743 -0.463303
v -0.225028 -0.106733 -0.408257
v -0.0825688 -0.0701743 -0.261468
v -0.222198 -0.115459 -0.5
v -0.0882295 -0.0527207 -0.279817
# 8 verticies
vt 0.895618 0.794725
vt 0.888311 0.809347
vt 0.996094 0.820313
vt 0.996094 0.626581
vt 0.795143 0.575406
vt 0.773221 0.579061
# 6 texture verticies
vn -0.474924 -0.877333 -0.068802
vn -0.946938 -0.307115 -0.0948093
vn -0.899441 0.431593 -0.0688021
vn 0.330534 -0.938537 -0.099473
vn 0.0182776 -0.965187 0.260922
vn -0.647261 -0.209923 0.732793
vn -0.551683 0.79219 0.260922
vn -0.283224 0.953881 -0.099473
# 8 normals
f  52/34/54 50/35/55 56/36/55
f  56/36/55 50/35/55 54/34/56
f  56/36/57 53/37/57 51/38/58 52/34/58
f  52/34/58 51/38/58 55/39/59 50/35/59
f  50/35/59 55/39/59 57/38/60 54/34/60
f  54/34/60 57/38/60 53/37/61 56/36/61
# object object_5
g object_5
v -0.00917431 0.00322018 0.206422
v -0.00917431 -0.106872 0.133028
v -0.110092 -0.00595413 0.191132
v 0 -0.0976973 0.139144
v -0.110092 -0.0976973 0.129969
v 0 -0.00595413 0.200306
v -0.119266 -0.0976973 0.139144
v -0.00917431 -0.00595413 0.191132
v -0.110092 0.00322018 0.206422
v -0.110092 -0.106872 0.133028
v -0.119266 -0.00595413 0.200306
v -0.00917431 -0.0976973 0.129969
# 12 verticies
vt 0.333109 0.136519
vt 0.333109 0.277404
vt 0.311435 0.277404
vt 0.311435 0.136519
vt 0.311435 0.299078
vt 0.296875 0.120108
vt 0.296875 0.0336496
vt 0.383333 0.0336496
vt 0.383333 0.120108
# 9 texture verticies
vn 0.561271 -0.608234 0.561271
vn 0.703248 -0.104326 0.703248
vn 0.50332 0.0451989 0.862917
vn 0.38816 -0.724025 0.570192
vn 0.370489 0.293725 0.881172
vn -0.370489 0.293725 0.881172
vn -0.50332 0.0451989 0.862917
vn -0.703248 -0.104326 0.703248
vn -0.38816 -0.724025 0.570192
vn -0.561271 -0.608234 0.561271
vn -0.23536 -0.833404 0.500043
vn 0.23536 -0.833404 0.500043
vn 0 -0.5547 0.83205
# 13 normals
f  68/40/62 64/41/63 62/42/64 60/43/65
f  64/41/63 67/44/66 62/42/64
f  67/40/66 59/41/67 69/42/68 62/43/64
f  69/42/68 59/41/67 61/44/69
f  65/42/70 69/43/68 61/40/69 63/41/71
f  58/44/72 65/42/70 63/41/71
f  68/44/62 60/42/65 66/41/73
f  60/42/65 65/43/70 58/40/72 66/41/73
f  60/45/74 62/46/74 69/47/74 65/48/74
# object object_6
g object_6
v -0.0825688 -0.00595413 -0.399083
v 0 -0.0151284 -0.399083
v -0.00917431 -0.00595413 -0.399083
v -0.0825688 -0.0976973 -0.399083
v -0.0917431 -0.0151284 -0.399083
v 0 -0.0885229 -0.399083
v -0.00917431 -0.0976973 -0.399083
v -0.0825688 -0.0151284 -0.389908
v -0.00917431 -0.0151284 -0.389908
v -0.0917431 -0.0885229 -0.399083
v -0.0825688 -0.0885229 -0.389908
v -0.00917431 -0.0885229 -0.389908
# 12 verticies
vt 0.986733 0.568901
vt 0.87074 0.568901
vt 0.87074 0.586746
vt 0.986733 0.586746
vt 0.852895 0.568901
vt 0.600626 0.773617
vt 0.600626 0.870501
vt 0.697511 0.870501
vt 0.697511 0.773617
# 9 texture verticies
vn 0.47651 0.47651 -0.738834
vn -0.47651 0.47651 -0.738834
vn -0.302905 0.673887 -0.673887
vn 0.302905 0.673887 -0.673887
vn 0.673887 0.302905 -0.673887
vn -0.673887 0.302905 -0.673887
vn -0.47651 -0.47651 -0.738834
vn -0.673887 -0.302905 -0.673887
vn -0.302905 -0.673887 -0.673887
vn 0.302905 -0.673887 -0.673887
vn 0.47651 -0.47651 -0.738834
vn 0.673887 -0.302905 -0.673887
vn 0 0 -1
# 13 normals
f  80/49/75 81/50/76 76/51/77 73/52/78
f  79/51/79 80/50/75 73/53/78
f  76/51/77 81/50/76 75/53/80
f  81/49/76 78/50/81 71/51/82 75/52/80
f  78/50/81 72/53/83 71/51/82
f  70/51/84 72/52/83 78/49/81 77/50/85
f  74/53/86 70/51/84 77/50/85
f  79/51/79 74/52/86 77/49/85 80/50/75
f  80/54/87 77/55/87 78/56/87 81/57/87
# object object_7
g object_7
v -0.127305 0.124186 -0.355909
v -0.0825688 -0.00595413 -0.389908
v -0.124322 0.11551 -0.444954
v -0.0943181 -0.00999294 -0.191124
v -0.0825688 -0.00595413 -0.1787
v -0.0708195 -0.00191533 -0.191124
v -0.119219 0.117265 -0.358608
v -0.129426 0.113756 -0.358608
# 8 verticies
vt 0.790601 0.715362
vt 0.792401 0.690385
vt 0.689825 0.709812
vt 0.75281 0.979005
vt 0.984957 0.990106
vt 0.999353 0.979005
# 6 texture verticies
vn -0.975759 0.212241 -0.0533608
vn -0.323368 0.940707 -0.102488
vn 0.639033 0.767326 -0.0533607
vn -0.910249 -0.402016 -0.0991497
vn -0.928424 -0.357968 -0.0994366
vn -0.927124 -0.193367 0.321015
vn -0.949052 -0.046041 0.311738
vn -0.112595 0.32755 0.938101
vn -0.210537 0.612472 0.761939
vn 0.850064 0.417541 0.321015
vn 0.776775 0.547212 0.311738
vn 0.952294 0.288529 -0.0994366
vn 0.965042 0.242616 -0.0991497
# 13 normals
f  89/58/88 82/59/89 84/60/89
f  88/58/90 84/60/89 82/59/89
f  84/60/91 83/61/92 85/62/93 89/58/94
f  89/58/94 85/62/93 86/63/95 82/59/96
f  82/59/96 86/63/95 87/62/97 88/58/98
f  88/58/98 87/62/97 83/61/99 84/60/100
# object object_8
g object_8
v 0.0206422 -0.0103988 0.340105
v -0.0206422 -0.0103988 0.340105
v 0.0405651 0.0045647 0.168003
v -0.0405651 0.0045647 0.168003
v 0 0.0406674 0.148089
v 0.0405665 -0.00508386 0.278983
v -0.0405665 -0.00508386 0.278983
v 0.0206422 0.00737996 0.135649
v -0.0206422 0.00737996 0.135649
v 0 0.0470973 0.206422
v 0.0260399 0.0372104 0.206422
v -0.0260399 0.0372104 0.206422
v 0 0.00840566 0.123853
v 0 -0.0123363 0.362385
v 0.024582 0.0319864 0.154726
v -0.024582 0.0319864 0.154726
v 0.0245827 0.0190064 0.304051
v -0.0245827 0.0190064 0.304051
v 0 0.0260216 0.316586
v 0.0441345 0.00122576 0.206422
v -0.0441345 0.00122576 0.206422
# 21 verticies
vt 0.438902 0.939318
vt 0.487509 0.927599
vt 0.469601 0.990099
vt 0.408203 0.990099
vt 0.520766 0.888536
vt 0.61798 0.876818
vt 0.61798 0.923693
vt 0.61798 0.990099
vt 0.669145 0.888536
vt 0.687053 0.927599
vt 0.697286 0.990099
vt 0.712636 0.939318
vt 0.730543 0.990099
# 13 texture verticies
vn 0.742565 0.483538 0.463452
vn 0.716914 0.623483 0.311935
vn 0 0.904652 0.426152
vn 0 0.756186 0.654357
vn 0.905327 0.370077 0.208389
vn 0.885827 0.463711 0.016817
vn 0.665 0.746291 0.0287128
vn -8.05227e-009 0.999218 0.0395473
vn 0.885972 0.366491 -0.284144
vn 0.694076 0.606238 -0.388245
vn 0 0.86697 -0.49836
vn 0.651022 0.40694 -0.640758
vn 0 0.585721 -0.810512
vn -0.742565 0.483538 0.463452
vn -0.716914 0.623483 0.311935
vn -0.905327 0.370077 0.208389
vn -0.665 0.746291 0.0287128
vn -0.885827 0.463711 0.016817
vn -0.694076 0.606238 -0.388245
vn -0.885972 0.366491 -0.284144
vn -0.651022 0.40694 -0.640758
# 21 normals
f  90/64/101 106/65/102 108/66/103 103/67/104
f  95/68/105 109/69/106 100/70/107 106/65/102
f  106/65/102 100/70/107 99/71/108 108/66/103
f  109/69/106 92/72/109 104/73/110 100/70/107
f  100/70/107 104/73/110 94/74/111 99/71/108
f  104/73/110 97/75/112 102/76/113 94/74/111
f  95/68/105 106/65/102 90/64/101
f  97/75/112 104/73/110 92/72/109
f  91/64/114 103/67/104 108/66/103 107/65/115
f  96/68/116 107/65/115 101/70/117 110/69/118
f  107/65/115 108/66/103 99/71/108 101/70/117
f  110/69/118 101/70/117 105/73/119 93/72/120
f  101/70/117 99/71/108 94/74/111 105/73/119
f  105/73/119 94/74/111 102/76/113 98/75/121
f  96/68/116 91/64/114 107/65/115
f  98/75/121 93/72/120 105/73/119
# object object_9
g object_9
v 0.127305 0.124186 -0.355909
v 0.0825688 -0.00595413 -0.389908
v 0.124322 0.11551 -0.444954
v 0.0943181 -0.00999294 -0.191124
v 0.0825688 -0.00595413 -0.1787
v 0.0708195 -0.00191533 -0.191124
v 0.119219 0.117265 -0.358608
v 0.129426 0.113756 -0.358608
# 8 verticies
vt 0.790601 0.715362
vt 0.689825 0.709812
vt 0.792401 0.690385
vt 0.984957 0.990106
vt 0.75281 0.979005
vt 0.999353 0.979005
# 6 texture verticies
vn 0.975759 0.212241 -0.0533608
vn 0.323368 0.940707 -0.102488
vn -0.639033 0.767326 -0.0533607
vn 0.910249 -0.402016 -0.0991497
vn 0.949052 -0.046041 0.311738
vn 0.927124 -0.193367 0.321015
vn 0.928424 -0.357968 -0.0994366
vn 0.210537 0.612472 0.761939
vn 0.112595 0.32755 0.938101
vn -0.776775 0.547212 0.311738
vn -0.850064 0.417541 0.321015
vn -0.965042 0.242616 -0.0991497
vn -0.952294 0.288529 -0.0994366
# 13 normals
f  118/77/122 113/78/123 111/79/123
f  117/77/124 111/79/123 113/78/123
f  113/78/125 118/77/126 114/80/127 112/81/128
f  118/77/126 111/79/129 115/82/130 114/80/127
f  111/79/129 117/77/131 116/80/132 115/82/130
f  117/77/131 113/78/133 112/81/134 116/80/132
# object object_10
g object_10
v 0.0825688 -0.00595413 -0.399083
v 0 -0.0151284 -0.399083
v 0.00917431 -0.00595413 -0.399083
v 0.0825688 -0.0976973 -0.399083
v 0.0917431 -0.0151284 -0.399083
v 0 -0.0885229 -0.399083
v 0.00917431 -0.0976973 -0.399083
v 0.0825688 -0.0151284 -0.389908
v 0.00917431 -0.0151284 -0.389908
v 0.0917431 -0.0885229 -0.399083
v 0.0825688 -0.0885229 -0.389908
v 0.00917431 -0.0885229 -0.389908
# 12 verticies
vt 0.986733 0.568901
vt 0.986733 0.586746
vt 0.87074 0.586746
vt 0.87074 0.568901
vt 0.852895 0.568901
vt 0.600626 0.773617
vt 0.697511 0.773617
vt 0.697511 0.870501
vt 0.600626 0.870501
# 9 texture verticies
vn -0.47651 0.47651 -0.738834
vn -0.302905 0.673887 -0.673887
vn 0.302905 0.673887 -0.673887
vn 0.47651 0.47651 -0.738834
vn -0.673887 0.302905 -0.673887
vn 0.673887 0.302905 -0.673887
vn 0.673887 -0.302905 -0.673887
vn 0.47651 -0.47651 -0.738834
vn 0.302905 -0.673887 -0.673887
vn -0.302905 -0.673887 -0.673887
vn -0.47651 -0.47651 -0.738834
vn -0.673887 -0.302905 -0.673887
vn 0 0 -1
# 13 normals
f  129/83/135 122/84/136 125/85/137 130/86/138
f  128/85/139 122/87/136 129/86/135
f  125/85/137 124/87/140 130/86/138
f  130/83/138 124/84/140 120/85/141 127/86/142
f  127/86/142 120/85/141 121/87/143
f  119/85/144 126/86/145 127/83/142 121/84/143
f  123/87/146 126/86/145 119/85/144
f  128/85/139 129/86/135 126/83/145 123/84/146
f  129/88/147 130/89/147 127/90/147 126/91/147
# object object_11
g object_11
v 0.00917431 0.00322018 0.206422
v 0.00917431 -0.106872 0.133028
v 0.110092 -0.00595413 0.191132
v 0 -0.0976973 0.139144
v 0.110092 -0.0976973 0.129969
v 0 -0.00595413 0.200306
v 0.119266 -0.0976973 0.139144
v 0.00917431 -0.00595413 0.191132
v 0.110092 0.00322018 0.206422
v 0.110092 -0.106872 0.133028
v 0.119266 -0.00595413 0.200306
v 0.00917431 -0.0976973 0.129969
# 12 verticies
vt 0.333109 0.136519
vt 0.311435 0.136519
vt 0.311435 0.277404
vt 0.333109 0.277404
vt 0.311435 0.299078
vt 0.296875 0.120108
vt 0.383333 0.120108
vt 0.383333 0.0336496
vt 0.296875 0.0336496
# 9 texture verticies
vn -0.561271 -0.608234 0.561271
vn -0.38816 -0.724025 0.570192
vn -0.50332 0.0451989 0.862917
vn -0.703248 -0.104326 0.703248
vn -0.370489 0.293725 0.881172
vn 0.50332 0.0451989 0.862917
vn 0.370489 0.293725 0.881172
vn 0.703248 -0.104326 0.703248
vn 0.38816 -0.724025 0.570192
vn 0.561271 -0.608234 0.561271
vn 0.23536 -0.833404 0.500043
vn -0.23536 -0.833404 0.500043
vn 0 -0.5547 0.83205
# 13 normals
f  141/92/148 133/93/149 135/94/150 137/95/151
f  137/95/151 135/94/150 140/96/152
f  140/92/152 135/93/150 142/94/153 132/95/154
f  142/94/153 134/96/155 132/95/154
f  138/94/156 136/95/157 134/92/155 142/93/153
f  131/96/158 136/95/157 138/94/156
f  141/96/148 139/95/159 133/94/149
f  133/94/149 139/95/159 131/92/158 138/93/156
f  133/97/160 138/98/160 142/99/160 135/100/160
# object object_12
g object_12
v 0.230925 -0.11829 -0.40367
v 0.0769081 -0.0876279 -0.279817
v 0.219367 -0.124186 -0.408257
v 0.0825688 -0.0701743 -0.463303
v 0.225028 -0.106733 -0.408257
v 0.0825688 -0.0701743 -0.261468
v 0.222198 -0.115459 -0.5
v 0.0882295 -0.0527207 -0.279817
# 8 verticies
vt 0.895618 0.794725
vt 0.996094 0.820313
vt 0.888311 0.809347
vt 0.795143 0.575406
vt 0.996094 0.626581
vt 0.773221 0.579061
# 6 texture verticies
vn 0.474924 -0.877333 -0.068802
vn 0.946938 -0.307115 -0.0948093
vn 0.899441 0.431593 -0.0688021
vn -0.330534 -0.938537 -0.099473
vn -0.0182776 -0.965187 0.260922
vn 0.647261 -0.209923 0.732793
vn 0.551683 0.79219 0.260922
vn 0.283224 0.953881 -0.099473
# 8 normals
f  145/101/161 149/102/162 143/103/162
f  149/102/162 147/101/163 143/103/162
f  149/102/164 145/101/165 144/104/165 146/105/164
f  145/101/165 143/103/166 148/106/166 144/104/165
f  143/103/166 147/101/167 150/104/167 148/106/166
f  147/101/167 149/102/168 146/105/168 150/104/167
# object object_13
g object_13
v -0.00917431 0.00322018 0.206422
v 0.00917431 0.00322018 0.206422
v 0.00917431 -0.106872 0.133028
v -0.00917431 -0.106872 0.133028
v 0 -0.0976973 0.139144
v -0.0825688 -0.00595413 -0.399083
v 0.0825688 -0.00595413 -0.399083
v 0 -0.00595413 0.200306
v 0 -0.0151284 -0.399083
v -0.00917431 -0.00595413 -0.399083
v 0.00917431 -0.00595413 -0.399083
v 0.119266 -0.0976973 0.139144
v -0.119266 -0.0976973 0.139144
v 0.0825688 -0.0976973 -0.399083
v -0.0825688 -0.0976973 -0.399083
v 0.0917431 -0.0151284 -0.399083
v -0.0917431 -0.0151284 -0.399083
v 0 -0.0885229 -0.399083
v 0.00917431 -0.0976973 -0.399083
v -0.00917431 -0.0976973 -0.399083
v -0.110092 0.00322018 0.206422
v 0.110092 0.00322018 0.206422
v 0.110092 -0.106872 0.133028
v -0.110092 -0.106872 0.133028
v 0.119266 -0.00595413 0.200306
v -0.119266 -0.00595413 0.200306
v 0.0917431 -0.0885229 -0.399083
v -0.0917431 -0.0885229 -0.399083
# 28 verticies
vt 0.9926 0.226835
vt 0.9926 0.345679
vt 0.312167 0.359096
vt 0.383216 0.2115
vt 0.9926 0.150162
vt 0.9926 0.165496
vt 0.391414 0.196166
vt 0.9926 0.0274841
vt 0.391414 0.0274841
vt 0.9926 0.0121495
vt 0.383216 0.0121495
vt 0.989867 0.422352
vt 0.989867 0.407017
vt 0.303969 0.376348
vt 0.989867 0.545029
vt 0.303969 0.545029
vt 0.989867 0.560364
vt 0.312167 0.560364
# 18 texture verticies
vn 1 0 0
vn 0.707107 -0.707107 0
vn 0.639602 -0.639602 -0.426401
vn 0 -1 0
vn 0 -0.83205 -0.5547
vn -0.707107 -0.707107 0
vn -0.639602 -0.639602 -0.426401
vn -1 0 0
vn -0.707107 0.707107 0
vn -0.639602 0.639602 0.426401
vn 0 1 0
vn 0 0.83205 0.5547
vn 0.707107 0.707107 0
vn 0.639602 0.639602 0.426401
# 14 normals
f  177/107/169 166/108/169 175/109/169 162/110/169
f  164/111/170 177/112/170 162/110/171 173/113/171
f  169/114/172 164/111/172 173/113/173 153/115/173
f  168/116/174 169/114/174 153/115/175 155/117/175
f  170/114/170 168/116/170 155/117/171 154/115/171
f  165/111/172 170/114/172 154/115/173 174/113/173
f  178/112/174 165/111/174 174/113/175 163/110/175
f  167/108/176 178/107/176 163/110/176 176/109/176
f  156/118/177 167/119/177 176/109/178 171/120/178
f  160/121/179 156/118/179 171/120/180 151/122/180
f  159/123/181 160/121/181 151/122/182 158/124/182
f  161/121/177 159/123/177 158/124/178 152/122/178
f  157/118/179 161/121/179 152/122/180 172/120/180
f  166/119/181 157/118/181 172/120/182 175/109/182
