# 
# Wavefront OBJ file
# Converted by the DEEP Exploration 4.1.0.0
# Right Hemisphere, LTD
# http://www.righthemisphere.com/
# 
mtllib forma.mtl
# object object
g object
v 7 -4.99164 -2.5
v 48 -2.15837 3.33649
v 53.9785 -4.99486 -1.90684
v 48 -4.99486 4.5114
v 42 -7.83135 -2.33649
v 55.9785 -6.8 0.5
v 53.9785 -7.4017 0.5
v 28 -7.95729 0.5
v 42 -0.98346 0.5
v 19.9785 2.5105 0.5
v 28 -4.97339 3.4839
v 6.97853 -2.86818 2.62132
v 7 -7.11296 2.62132
v 55.9785 -6.27128 1.77642
v 48 -7.83135 3.33649
v 37 -7.99164 0.5
v 48 -2.15837 -2.33649
v 7 -7.11296 -1.62132
v 37 -4.99164 3.5
v 55.9785 -6.27128 -0.776421
v 42 -4.99486 -3.5114
v 6.97853 -7.11082 -1.62132
v 53.9785 -2.58802 0.5
v 28 -4.97339 -2.4839
v 19.9785 -12.4573 0.5
v 53.9785 -6.69676 -1.20189
v 37 -2.87032 2.62132
v 12.9571 2.5105 0.5
v 55.9785 -3.71844 1.77642
v 28 -1.9895 0.5
v 6.97853 -7.98949 0.5
v 55.9785 -3.18973 0.5
v 37 -1.99164 0.5
v 48 -7.83135 -2.33649
v 6.97853 -4.9895 3.5
v 55.9785 -3.71844 -0.776421
v 37 -2.87032 -1.62132
v 48 -0.98346 0.5
v 37 -4.99164 -2.5
v 19.9785 -4.97339 7.9839
v 9.97853 -7.95729 0.5
v 42 -9.00627 0.5
v 53.9785 -3.29297 -1.20189
v 42 -2.15837 3.33649
v 9.97853 -4.97339 3.4839
v 6.97853 -7.11082 2.62132
v 53.9785 -4.99486 2.90684
v 53.9785 -6.69676 2.20189
v 42 -4.99486 4.5114
v 19.9785 -4.97339 -6.9839
v 55.9785 -4.99486 2.30513
v 6.97853 -1.9895 0.5
v 7 -7.99164 0.5
v 12.9571 -12.4573 0.5
v 37 -7.11296 2.62132
v 7 -4.99164 3.5
v 48 -4.99486 -3.5114
v 6.97853 -4.9895 -2.5
v 53.9785 -3.29297 2.20189
v 37 -7.11296 -1.62132
v 42 -7.83135 3.33649
v 12.9571 -4.97339 7.9839
v 42 -2.15837 -2.33649
v 9.97853 -4.97339 -2.4839
v 9.9785 -4.98627 0.5
v 6.97853 -2.86818 -1.62132
v 7 -2.87032 2.62132
v 9.97853 -1.9895 0.5
v 55.9785 -4.99486 -1.30513
v 7 -1.99164 0.5
v 12.9571 -4.97339 -6.9839
v 48 -9.00627 0.5
v 56.9785 -4.99486 0.5
v 7 -2.87032 -1.62132
# 74 verticies
vt 0.663375 0.0170637
vt 0.986665 0.0843787
vt 0.98668 0.242688
vt 0.663408 0.42378
vt 0.663375 0.0170634
vt 0.986661 0.0843706
vt 0.986605 0.242716
vt 0.663408 0.423779
vt 0.830676 0.518315
vt 0.729599 0.417355
vt 0.687741 0.518433
vt 0.830676 0.375483
vt 0.931754 0.417355
vt 0.973612 0.518433
vt 0.93174 0.619496
vt 0.830677 0.661353
vt 0.729613 0.619496
vt 0.57122 0.736995
vt 0.491212 0.736995
vt 0.491212 0.860445
vt 0.57122 0.860445
vt 0.651229 0.736995
vt 0.651229 0.860445
vt 0.0940231 0.736995
vt 0.0142422 0.736995
vt 0.0142422 0.860445
vt 0.0940231 0.860445
vt 0.252727 0.736995
vt 0.173486 0.736995
vt 0.173486 0.860445
vt 0.252727 0.860445
vt 0.331968 0.736995
vt 0.331968 0.860445
vt 0.0943848 0.983453
vt 0.173739 0.983453
vt 0.725622 0.934841
vt 0.682103 0.829777
vt 0.76894 0.829777
vt 0.787025 0.873438
vt 0.830686 0.829777
vt 0.252727 0.983453
vt 0.331715 0.983453
vt 0.935749 0.934841
vt 0.830686 0.978359
vt 0.830686 0.891523
vt 0.874346 0.873438
vt 0.0145006 0.983453
vt 0.725622 0.724713
vt 0.787025 0.786116
vt 0.57122 0.983453
vt 0.651487 0.983453
vt 0.830686 0.681194
vt 0.830686 0.768031
vt 0.490953 0.983453
vt 0.935749 0.724713
vt 0.874346 0.786116
vt 0.411431 0.736995
vt 0.411431 0.860445
vt 0.411069 0.983453
vt 0.979268 0.829777
vt 0.892431 0.829777
vt 0.491159 0.0168687
vt 0.411357 0.0168687
vt 0.411357 0.63412
vt 0.491159 0.63412
vt 0.331916 0.0168687
vt 0.331916 0.63412
vt 0.57122 0.0168687
vt 0.57122 0.63412
vt 0.651282 0.0168687
vt 0.651282 0.63412
vt 0.0940971 0.0168686
vt 0.0142951 0.0168686
vt 0.0142951 0.634119
vt 0.0940971 0.634119
vt 0.252727 0.0168686
vt 0.173538 0.0168686
vt 0.173538 0.634119
vt 0.252727 0.634119
# 79 texture verticies
vn 0 0 1
vn 0 1 0
vn 0 -1 0
vn 0 0 -1
vn -1 -0.000289777 0
vn -0.706841 -0.500218 0.500158
vn -0.70711 -6.00436e-005 0.707104
vn -0.706729 -0.707484 0
vn -0.706841 -0.500218 -0.500158
vn -0.70711 -6.00436e-005 -0.707104
vn -0.707378 0.499778 -0.499838
vn -0.707489 0.706724 0
vn -0.707378 0.499778 0.499838
vn 0 0.707107 0.707107
vn 0.131052 0.701008 0.701008
vn 0.131052 0.991376 0
vn 0 0.707107 -0.707107
vn 0.131052 0.701008 -0.701008
vn 0 4.83867e-008 -1
vn 0.131052 4.86849e-008 -0.991376
vn 0 -0.707107 -0.707107
vn 0.131052 -0.701008 -0.701008
vn 0.131052 -0.991376 0
vn 0 -0.707107 0.707107
vn 0.131052 -0.701008 0.701008
vn 0.273696 3.20835e-008 -0.961816
vn 0.273696 -0.680107 -0.680107
vn 0.636084 2.52659e-008 -0.77162
vn 0.636084 -0.545617 -0.545618
vn 1 2.6062e-008 4.34367e-009
vn 0.273696 -0.961816 -8.02088e-009
vn 0.273696 -0.680107 0.680107
vn 0.636084 -0.77162 0
vn 0.636084 -0.545618 0.545618
vn 0.273696 0.680107 -0.680107
vn 0.636084 0.545618 -0.545618
vn 0.273696 0.961816 8.02088e-009
vn 0.636084 0.77162 0
vn 0.273696 0.680107 0.680107
vn 0.636084 0.545618 0.545618
vn 0 4.83867e-008 1
vn 0.131052 5.6799e-008 0.991376
vn 0.273696 4.01044e-008 0.961816
vn 0.636084 2.52659e-008 0.77162
vn 0 -0.707107 0.707107
vn 0 0.707107 -0.707107
vn 0 -0.707107 -0.707107
vn -0.197836 0.69314 0.693122
vn -0.198265 1.81088e-005 0.980148
vn -0.198694 -0.692999 0.693017
vn -0.197658 0.980271 0
vn -0.197836 0.69314 -0.693122
vn -0.198265 1.81088e-005 -0.980148
vn -0.198872 -0.980026 0
vn -0.198694 -0.692999 -0.693017
# 55 normals
usemtl material
f  41/1/1 54/2/1 25/3/1 8/4/1
f  45/5/2 62/6/2 40/7/2 11/8/2
f  45/5/3 11/8/3 40/7/3 62/6/3
f  68/1/1 30/4/1 10/3/1 28/2/1
f  64/1/3 71/2/3 50/3/3 24/4/3
f  41/1/4 8/4/4 25/3/4 54/2/4
f  68/1/4 28/2/4 10/3/4 30/4/4
f  64/1/2 24/4/2 50/3/2 71/2/2
f  65/9/5 66/10/6 58/11/7
f  65/9/5 52/12/8 66/10/6
f  65/9/5 12/13/9 52/12/8
f  65/9/5 35/14/10 12/13/9
f  65/9/5 46/15/11 35/14/10
f  65/9/5 31/16/12 46/15/11
f  65/9/5 22/17/13 31/16/12
f  65/9/5 58/11/7 22/17/13
f  9/18/2 44/19/14 2/20/15 38/21/16
f  63/22/17 9/18/2 38/21/16 17/23/18
f  21/24/19 63/25/17 17/26/18 57/27/20
f  42/28/3 5/29/21 34/30/22 72/31/23
f  61/32/24 42/28/3 72/31/23 15/33/25
f  34/30/22 57/27/20 3/34/26 26/35/27
f  26/36/27 3/37/26 69/38/28 20/39/29
f  20/39/29 69/38/28 73/40/30
f  15/33/25 72/31/23 7/41/31 48/42/32
f  48/43/32 7/44/31 6/45/33 14/46/34
f  14/46/34 6/45/33 73/40/30
f  72/31/23 34/30/22 26/35/27 7/41/31
f  7/44/31 26/36/27 20/39/29 6/45/33
f  6/45/33 20/39/29 73/40/30
f  57/27/20 17/26/18 43/47/35 3/34/26
f  3/37/26 43/48/35 36/49/36 69/38/28
f  69/38/28 36/49/36 73/40/30
f  17/23/18 38/21/16 23/50/37 43/51/35
f  43/48/35 23/52/37 32/53/38 36/49/36
f  36/49/36 32/53/38 73/40/30
f  38/21/16 2/20/15 59/54/39 23/50/37
f  23/52/37 59/55/39 29/56/40 32/53/38
f  32/53/38 29/56/40 73/40/30
f  49/57/41 61/32/24 15/33/25 4/58/42
f  4/58/42 15/33/25 48/42/32 47/59/43
f  47/60/43 48/43/32 14/46/34 51/61/44
f  51/61/44 14/46/34 73/40/30
f  44/19/14 49/57/41 4/58/42 2/20/15
f  2/20/15 4/58/42 47/59/43 59/54/39
f  59/55/39 47/60/43 51/61/44 29/56/40
f  29/56/40 51/61/44 73/40/30
f  5/29/21 21/24/19 57/27/20 34/30/22
f  67/62/14 56/63/1 19/64/1 27/65/14
f  56/63/1 13/66/45 55/67/45 19/64/1
f  70/68/2 67/62/14 27/65/14 33/69/2
f  74/70/46 70/68/2 33/69/2 37/71/46
f  1/72/4 74/73/46 37/74/46 39/75/4
f  53/76/3 18/77/47 60/78/47 16/79/3
f  13/66/45 53/76/3 16/79/3 55/67/45
f  18/77/47 1/72/4 39/75/4 60/78/47
f  27/65/48 19/64/49 49/57/49 44/19/48
f  19/64/49 55/67/50 61/32/50 49/57/49
f  33/69/51 27/65/48 44/19/48 9/18/51
f  37/71/52 33/69/51 9/18/51 63/22/52
f  39/75/53 37/74/52 63/25/52 21/24/53
f  16/79/54 60/78/55 5/29/55 42/28/54
f  55/67/50 16/79/54 42/28/54 61/32/50
f  60/78/55 39/75/53 21/24/53 5/29/55
